<?xml version="1.0" encoding="utf-8"?>
<svg version="1.1" xmlns:xlink="http://www.w3.org/1999/xlink" width="126px" height="126px" xmlns="http://www.w3.org/2000/svg">
  <g transform="matrix(1 0 0 1 -1317 -542 )">
    <path d="M 1380 542  C 1415.28 542  1443 569.72  1443 605  C 1443 640.28  1415.28 668  1380 668  C 1344.72 668  1317 640.28  1317 605  C 1317 569.72  1344.72 542  1380 542  Z " fill-rule="nonzero" fill="#ffffff" stroke="none" />
    <path d="M 1380 542.5  C 1415 542.5  1442.5 570  1442.5 605  C 1442.5 640  1415 667.5  1380 667.5  C 1345 667.5  1317.5 640  1317.5 605  C 1317.5 570  1345 542.5  1380 542.5  Z " stroke-width="1" stroke="#797979" fill="none" />
  </g>
</svg>