<?xml version="1.0" encoding="utf-8"?>
<svg version="1.1" xmlns:xlink="http://www.w3.org/1999/xlink" width="14px" height="14px" xmlns="http://www.w3.org/2000/svg">
  <defs>
    <mask fill="white" id="clip11">
      <path d="M 0.466666666666668 2.02222222222222  L 11.9793333333333 13.5348888888889  C 14.7606666666667 10.3133333333333  14.6564444444444 5.46  11.5982222222222 2.40333333333333  C 8.54 -0.654888888888888  3.68822222222222 -0.757555555555554  0.466666666666668 2.02222222222222  Z " fill-rule="evenodd" />
    </mask>
  </defs>
  <g transform="matrix(1 0 0 1 -765 -725 )">
    <path d="M 0.466666666666668 2.02222222222222  L 11.9793333333333 13.5348888888889  C 14.7606666666667 10.3133333333333  14.6564444444444 5.46  11.5982222222222 2.40333333333333  C 8.54 -0.654888888888888  3.68822222222222 -0.757555555555554  0.466666666666668 2.02222222222222  Z " fill-rule="nonzero" fill="#ffffff" stroke="none" transform="matrix(1 0 0 1 765 725 )" />
    <path d="M 0.466666666666668 2.02222222222222  L 11.9793333333333 13.5348888888889  C 14.7606666666667 10.3133333333333  14.6564444444444 5.46  11.5982222222222 2.40333333333333  C 8.54 -0.654888888888888  3.68822222222222 -0.757555555555554  0.466666666666668 2.02222222222222  Z " stroke-width="6" stroke="#000000" fill="none" transform="matrix(1 0 0 1 765 725 )" mask="url(#clip11)" />
  </g>
</svg>