<?xml version="1.0" encoding="utf-8"?>
<svg version="1.1" xmlns:xlink="http://www.w3.org/1999/xlink" width="40px" height="39px" xmlns="http://www.w3.org/2000/svg">
  <g transform="matrix(1 0 0 1 -889 -725 )">
    <path d="M 28.3208701563562 34.1884765625  C 30.6684794924088 33.1474609375  32.6671198731022 31.6959635416667  34.3167912984364 29.833984375  C 33.3378653976886 29.986328125  32.3408112395196 30.0625  31.3256288239293 30.0625  C 28.0262859732608 30.0625  24.9716745977793 29.30078125  22.1617946974847 27.77734375  C 19.3519147971901 26.25390625  17.1312032630863 24.1803385416667  15.4996600951734 21.556640625  C 13.8681169272604 18.9329427083333  13.0523453433039 16.0807291666667  13.0523453433039 13  C 13.0523453433039 9.75  13.9950147292092 6.728515625  15.8803535010197 3.935546875  C 12.2365737593474 4.951171875  9.25900747790619 6.88932291666666  6.94765465669613 9.75  C 4.63630183548606 12.6106770833333  3.48062542488103 15.8606770833333  3.48062542488103 19.5  C 3.48062542488103 21.7005208333333  3.94289598912305 23.8037109375  4.86743711760707 25.8095703125  C 5.79197824609109 27.8154296875  7.02923181509177 29.5419921875  8.57919782460911 30.9892578125  C 10.1291638341264 32.4365234375  11.9782460910945 33.591796875  14.1264445955133 34.455078125  C 16.274643099932 35.318359375  18.527079084523 35.75  20.8837525492862 35.75  C 23.494221617947 35.75  25.9732608203037 35.2294921875  28.3208701563562 34.1884765625  Z M 39.9592114208022 26.7109375  C 40.0226603217766 27.0494791666667  39.9818717425787 27.37109375  39.8368456832087 27.67578125  C 38.1327894856107 31.1119791666667  35.5631089961477 33.8583984375  32.1278042148198 35.9150390625  C 28.692499433492 37.9716796875  24.9444822116474 39  20.8837525492862 39  C 18.0557443915704 39  15.3546340358033 38.4837239583333  12.780421481985 37.451171875  C 10.2062089281668 36.4186197916667  7.985497394063 35.0305989583333  6.11828687967369 33.287109375  C 4.25107636528439 31.5436197916667  2.76455925674145 29.4700520833333  1.65873555404487 27.06640625  C 0.552911851348289 24.6627604166667  0 22.140625  0 19.5  C 0 16.91015625  0.521187400861092 14.4345703125  1.56356220258328 12.0732421875  C 2.60593700430546 9.7119140625  4.01994108316338 7.66796875  5.80557443915704 5.94140625  C 7.59120779515069 4.21484375  9.72581010650351 2.82259114583333  12.2093813732155 1.7646484375  C 14.6929526399275 0.706705729166666  17.3215499660095 0.126953125000001  20.0951733514616 0.0253906249999986  C 20.8928166779968 -0.0084635416666734  21.4457285293451 0.321614583333329  21.7539089055065 1.015625  C 22.0802175390891 1.70963541666666  21.9442556084296 2.31901041666666  21.3460231135282 2.84375  C 19.7869929753003 4.1640625  18.5950600498527 5.7001953125  17.7702243371856 7.4521484375  C 16.9453886245185 9.2041015625  16.5329707681849 11.0533854166667  16.5329707681849 13  C 16.5329707681849 15.5052083333333  17.1946521640607 17.8157552083333  18.5180149558124 19.931640625  C 19.841377747564 22.0475260416667  21.6360752322683 23.7233072916667  23.9021074099252 24.958984375  C 26.1681395875821 26.1946614583333  28.6426467255835 26.8125  31.3256288239293 26.8125  C 33.4647631996374 26.8125  35.5313845456606 26.380859375  37.5254928619986 25.517578125  C 38.2687514162701 25.212890625  38.9213686834353 25.3229166666667  39.4833446634942 25.84765625  C 39.7371402673918 26.0846354166667  39.8957625198278 26.3723958333333  39.9592114208022 26.7109375  Z " fill-rule="nonzero" fill="#7fc6bc" stroke="none" transform="matrix(1 0 0 1 889 725 )" />
  </g>
</svg>