<?xml version="1.0" encoding="utf-8"?>
<svg version="1.1" xmlns:xlink="http://www.w3.org/1999/xlink" width="31px" height="37px" xmlns="http://www.w3.org/2000/svg">
  <g transform="matrix(1 0 0 1 -1034 -174 )">
    <path d="M 31 26.94192  C 31 25.46192  31 1.48  31 1.48  L 29.3363333333333 0.01184  L 10.1237142857143 2.97332  L 8.85714285714286 4.44  C 8.85714285714286 4.44  8.85714285714286 19.08312  8.85714285714286 23.9908  C 8.85714285714286 25.75052  8.65490476190476 26.64  5.17109523809524 26.64  C 1.32414285714286 26.64  0 28.89108  0 31.09184  C 0 32.88116  1.04219047619048 35.53184  5.16666666666667 35.53184  C 9.78566666666667 35.53184  11.8095238095238 32.6932  11.8095238095238 30.18016  C 11.8095238095238 28.70016  11.8095238095238 11.0112  11.8095238095238 11.0112  L 28 8.35756  L 28 21.03228  C 28.047619047619 22.792  27.845380952381 23.68148  24.3615714285714 23.68148  C 20.514619047619 23.68  19.1904761904762 25.93108  19.1904761904762 28.13184  C 19.1904761904762 29.92116  20.2326666666667 32.57184  24.3571428571429 32.57184  C 28.9761428571429 32.57184  31 29.45496  31 26.94192  Z " fill-rule="nonzero" fill="#000000" stroke="none" transform="matrix(1 0 0 1 1034 174 )" />
  </g>
</svg>