<?xml version="1.0" encoding="utf-8"?>
<svg version="1.1" xmlns:xlink="http://www.w3.org/1999/xlink" width="22px" height="37px" xmlns="http://www.w3.org/2000/svg">
  <g transform="matrix(1 0 0 1 -1252 -379 )">
    <path d="M 21.6219931271478 17.6472945891784  C 21.8739977090493 17.8944555778223  22 18.1786907147629  22 18.5  C 22 18.8213092852371  21.8739977090493 19.1055444221777  21.6219931271478 19.3527054108216  L 4.00687285223368 36.6292585170341  C 3.75486827033219 36.876419505678  3.46506300114548 37  3.13745704467354 37  C 2.8098510882016 37  2.52004581901489 36.876419505678  2.2680412371134 36.6292585170341  L 0.378006872852234 34.7755511022044  C 0.126002290950745 34.5283901135604  0 34.2441549766199  0 33.9228456913828  C 0 33.6015364061456  0.126002290950745 33.3173012692051  0.378006872852234 33.0701402805611  L 15.233676975945 18.5  L 0.378006872852234 3.92985971943888  C 0.126002290950745 3.68269873079492  0 3.39846359385437  0 3.07715430861724  C 0 2.75584502338009  0.126002290950745 2.47160988643954  0.378006872852234 2.22444889779559  L 2.2680412371134 0.370741482965932  C 2.52004581901489 0.123580494321976  2.8098510882016 0  3.13745704467354 0  C 3.46506300114548 0  3.75486827033219 0.123580494321976  4.00687285223368 0.370741482965932  L 21.6219931271478 17.6472945891784  Z " fill-rule="nonzero" fill="#000000" stroke="none" transform="matrix(1 0 0 1 1252 379 )" />
  </g>
</svg>