<?xml version="1.0" encoding="utf-8"?>
<svg version="1.1" xmlns:xlink="http://www.w3.org/1999/xlink" width="14px" height="14px" xmlns="http://www.w3.org/2000/svg">
  <defs>
    <mask fill="white" id="clip9">
      <path d="M 2.00355555555555 13.5162222222222  L 13.5162222222222 2.00355555555555  C 10.2931111111111 -0.777777777777778  5.44133333333333 -0.673555555555556  2.38311111111111 2.38311111111111  C -0.673555555555556 5.44133333333333  -0.777777777777778 10.2931111111111  2.00355555555555 13.5162222222222  Z " fill-rule="evenodd" />
    </mask>
  </defs>
  <g transform="matrix(1 0 0 1 -1591 -770 )">
    <path d="M 2.00355555555555 13.5162222222222  L 13.5162222222222 2.00355555555555  C 10.2931111111111 -0.777777777777778  5.44133333333333 -0.673555555555556  2.38311111111111 2.38311111111111  C -0.673555555555556 5.44133333333333  -0.777777777777778 10.2931111111111  2.00355555555555 13.5162222222222  Z " fill-rule="nonzero" fill="#7fc6bc" stroke="none" fill-opacity="0" transform="matrix(1 0 0 1 1591 770 )" />
    <path d="M 2.00355555555555 13.5162222222222  L 13.5162222222222 2.00355555555555  C 10.2931111111111 -0.777777777777778  5.44133333333333 -0.673555555555556  2.38311111111111 2.38311111111111  C -0.673555555555556 5.44133333333333  -0.777777777777778 10.2931111111111  2.00355555555555 13.5162222222222  Z " stroke-width="6" stroke="#34bd7d" fill="none" transform="matrix(1 0 0 1 1591 770 )" mask="url(#clip9)" />
  </g>
</svg>