<?xml version="1.0" encoding="utf-8"?>
<svg version="1.1" xmlns:xlink="http://www.w3.org/1999/xlink" width="40px" height="39px" xmlns="http://www.w3.org/2000/svg">
  <g transform="matrix(1 0 0 1 -1866 -770 )">
    <path d="M 33.3333333333333 11.1428571428571  C 33.3333333333333 13.2756696428571  32.6475694444444 15.2488839285714  31.2760416666667 17.0625  C 32.0920138888889 17.265625  32.8689236111111 17.5412946428571  33.6067708333333 17.8895089285714  C 34.3446180555556 18.2377232142857  35.1171875 18.7672991071429  35.9244791666667 19.4782366071429  C 36.7317708333333 20.1891741071429  37.421875 21.0270647321429  37.9947916666667 21.9919084821429  C 38.5677083333333 22.9567522321429  39.0451388888889 24.2045200892857  39.4270833333333 25.7352120535714  C 39.8090277777778 27.2659040178571  40 28.9815848214286  40 30.8822544642857  C 40 33.1166294642857  39.1319444444444 35.0281808035714  37.3958333333333 36.6169084821429  C 35.6597222222222 38.2056361607143  33.5677083333333 39  31.1197916666667 39  L 8.88020833333333 39  C 6.43229166666667 39  4.34027777777778 38.2056361607143  2.60416666666667 36.6169084821429  C 0.868055555555555 35.0281808035714  0 33.1166294642857  0 30.8822544642857  C 0 28.9815848214286  0.190972222222222 27.2659040178571  0.572916666666667 25.7352120535714  C 0.954861111111111 24.2045200892857  1.43229166666667 22.9567522321429  2.00520833333333 21.9919084821429  C 2.578125 21.0270647321429  3.26822916666667 20.1891741071429  4.07552083333333 19.4782366071429  C 4.8828125 18.7672991071429  5.65538194444445 18.2377232142857  6.39322916666667 17.8895089285714  C 7.13107638888889 17.5412946428571  7.90798611111111 17.265625  8.72395833333333 17.0625  C 7.35243055555556 15.2488839285714  6.66666666666667 13.2756696428571  6.66666666666667 11.1428571428571  C 6.66666666666667 9.63392857142857  7.01822916666667 8.19391741071428  7.72135416666667 6.82282366071428  C 8.42447916666667 5.45172991071428  9.375 4.265625  10.5729166666667 3.26450892857143  C 11.7708333333333 2.26339285714286  13.1901041666667 1.46902901785714  14.8307291666667 0.881417410714284  C 16.4713541666667 0.293805803571427  18.1944444444444 0  20 0  C 21.8055555555556 0  23.5286458333333 0.293805803571427  25.1692708333333 0.881417410714284  C 26.8098958333333 1.46902901785714  28.2291666666667 2.26339285714286  29.4270833333333 3.26450892857143  C 30.625 4.265625  31.5755208333333 5.45172991071428  32.2786458333333 6.82282366071428  C 32.9817708333333 8.19391741071428  33.3333333333333 9.63392857142857  33.3333333333333 11.1428571428571  Z M 27.0703125 5.23409598214286  C 25.1171875 3.60184151785714  22.7604166666667 2.78571428571428  20 2.78571428571428  C 17.2395833333333 2.78571428571428  14.8828125 3.60184151785714  12.9296875 5.23409598214286  C 10.9765625 6.86635044642857  10 8.8359375  10 11.1428571428571  C 10 13.4497767857143  10.9765625 15.4193638392857  12.9296875 17.0516183035714  C 14.8828125 18.6838727678571  17.2395833333333 19.5  20 19.5  C 22.7604166666667 19.5  25.1171875 18.6838727678571  27.0703125 17.0516183035714  C 29.0234375 15.4193638392857  30 13.4497767857143  30 11.1428571428571  C 30 8.8359375  29.0234375 6.86635044642857  27.0703125 5.23409598214286  Z M 8.88020833333333 36  L 31.1197916666667 36  C 32.6475694444444 36.2142857142857  33.9539930555556 35.6955915178571  35.0390625 34.658203125  C 36.1241319444444 33.6208147321429  36.6666666666667 32.3621651785714  36.6666666666667 30.8822544642857  C 36.6666666666667 27.4146205357143  35.9852430555556 24.6796875  34.6223958333333 22.6774553571429  C 33.2595486111111 20.6752232142857  31.3020833333333 19.6233258928571  28.75 19.5217633928571  C 26.2326388888889 21.3643973214286  23.3159722222222 22.2857142857143  20 22.2857142857143  C 16.6840277777778 22.2857142857143  13.7673611111111 21.3643973214286  11.25 19.5217633928571  C 8.69791666666667 19.6233258928571  6.74045138888889 20.6752232142857  5.37760416666667 22.6774553571429  C 4.01475694444444 24.6796875  3.33333333333333 27.4146205357143  3.33333333333333 30.8822544642857  C 3.33333333333333 32.3621651785714  3.87586805555556 33.6208147321429  4.9609375 34.658203125  C 6.04600694444445 35.6955915178571  7.35243055555556 36.2142857142857  8.88020833333333 36  Z " fill-rule="nonzero" fill="#000000" stroke="none" transform="matrix(1 0 0 1 1866 770 )" />
  </g>
</svg>