<?xml version="1.0" encoding="utf-8"?>
<svg version="1.1" xmlns:xlink="http://www.w3.org/1999/xlink" width="39px" height="36px" xmlns="http://www.w3.org/2000/svg">
  <g transform="matrix(1 0 0 1 -2530 -225 )">
    <path d="M 38.2954838709677 4.96969696969697  C 38.7651612903226 5.53535353535353  39 6.22222222222222  39 7.03030303030303  C 39 7.83838383838383  38.7651612903226 8.52525252525252  38.2954838709677 9.09090909090909  L 20.0787096774194 31.030303030303  L 16.6567741935484 35.1515151515151  C 16.1870967741935 35.7171717171717  15.6167741935484 36  14.9458064516129 36  C 14.2748387096774 36  13.7045161290323 35.7171717171717  13.2348387096774 35.1515151515151  L 9.81290322580645 31.030303030303  L 0.704516129032258 20.0606060606061  C 0.23483870967742 19.4949494949495  0 18.8080808080808  0 18  C 0 17.1919191919192  0.23483870967742 16.5050505050505  0.704516129032258 15.9393939393939  L 4.12645161290323 11.8181818181818  C 4.59612903225807 11.2525252525253  5.16645161290323 10.969696969697  5.83741935483871 10.969696969697  C 6.5083870967742 10.969696969697  7.07870967741936 11.2525252525253  7.54838709677419 11.8181818181818  L 14.9458064516129 20.7575757575758  L 31.4516129032258 0.848484848484849  C 31.9212903225806 0.282828282828282  32.4916129032258 0  33.1625806451613 0  C 33.8335483870968 0  34.4038709677419 0.282828282828282  34.8735483870968 0.848484848484849  L 38.2954838709677 4.96969696969697  Z " fill-rule="nonzero" fill="#7fc6bc" stroke="none" transform="matrix(1 0 0 1 2530 225 )" />
  </g>
</svg>