<?xml version="1.0" encoding="utf-8"?>
<svg version="1.1" xmlns:xlink="http://www.w3.org/1999/xlink" width="27px" height="32px" xmlns="http://www.w3.org/2000/svg">
  <g transform="matrix(1 0 0 1 -1247 -307 )">
    <path d="M 26.3636363636364 23.9191919191919  C 26.7878787878788 24.4219977553311  27 25.0325476992144  27 25.7508417508418  C 27 26.4691358024691  26.7878787878788 27.0796857463524  26.3636363636364 27.5824915824916  L 23.2727272727273 31.2457912457912  C 22.8484848484849 31.7485970819304  22.3333333333333 32  21.7272727272727 32  C 21.1212121212121 32  20.6060606060606 31.7485970819304  20.1818181818182 31.2457912457912  L 13.5 23.3265993265993  L 6.81818181818182 31.2457912457912  C 6.39393939393939 31.7485970819304  5.87878787878788 32  5.27272727272727 32  C 4.66666666666667 32  4.15151515151515 31.7485970819304  3.72727272727273 31.2457912457912  L 0.636363636363636 27.5824915824916  C 0.212121212121212 27.0796857463524  0 26.4691358024691  0 25.7508417508418  C 0 25.0325476992144  0.212121212121212 24.4219977553311  0.636363636363636 23.9191919191919  L 7.31818181818182 16  L 0.636363636363636 8.08080808080808  C 0.212121212121212 7.57800224466891  0 6.96745230078563  0 6.24915824915825  C 0 5.53086419753086  0.212121212121212 4.92031425364758  0.636363636363636 4.41750841750842  L 3.72727272727273 0.754208754208754  C 4.15151515151515 0.251402918069584  4.66666666666667 0  5.27272727272727 0  C 5.87878787878788 0  6.39393939393939 0.251402918069584  6.81818181818182 0.754208754208754  L 13.5 8.67340067340067  L 20.1818181818182 0.754208754208754  C 20.6060606060606 0.251402918069584  21.1212121212121 0  21.7272727272727 0  C 22.3333333333333 0  22.8484848484849 0.251402918069584  23.2727272727273 0.754208754208754  L 26.3636363636364 4.41750841750842  C 26.7878787878788 4.92031425364758  27 5.53086419753086  27 6.24915824915825  C 27 6.96745230078563  26.7878787878788 7.57800224466891  26.3636363636364 8.08080808080808  L 19.6818181818182 16  L 26.3636363636364 23.9191919191919  Z " fill-rule="nonzero" fill="#000000" stroke="none" transform="matrix(1 0 0 1 1247 307 )" />
  </g>
</svg>