<?xml version="1.0" encoding="utf-8"?>
<svg version="1.1" xmlns:xlink="http://www.w3.org/1999/xlink" width="34px" height="34px" xmlns="http://www.w3.org/2000/svg">
  <defs>
    <mask fill="white" id="clip7">
      <path d="M 34 17  C 34 7.61136363636364  26.3886363636364 0  17 0  C 7.61136363636364 0  0 7.61136363636364  0 17  C 0 26.3886363636364  7.61136363636364 34  17 34  C 26.3886363636364 34  34 26.3886363636364  34 17  Z M 18 6.17409090909091  L 18 18.5454545454545  L 9.265 18.5454545454545  C 8.415 18.5454545454545  7.72727272727273 17.8577272727273  7.72727272727273 17.0077272727273  L 7.72727272727273 16.9907272727273  C 7.72727272727273 16.1422727272727  8.415 15.4545454545455  9.265 15.4545454545455  L 15.4545454545455 15.4545454545455  L 15.4545454545455 6.17409090909091  C 15.4545454545455 5.32409090909091  16.1422727272727 4.63636363636364  16.9922727272727 4.63636363636364  L 17.0092727272727 4.63636363636364  C 17.8577272727273 4.63636363636364  18.5454545454545 5.32409090909091  18 6.17409090909091  Z " fill-rule="evenodd" />
    </mask>
  </defs>
  <g transform="matrix(1 0 0 1 -1594 -775 )">
    <path d="M 34 17  C 34 7.61136363636364  26.3886363636364 0  17 0  C 7.61136363636364 0  0 7.61136363636364  0 17  C 0 26.3886363636364  7.61136363636364 34  17 34  C 26.3886363636364 34  34 26.3886363636364  34 17  Z M 18 6.17409090909091  L 18 18.5454545454545  L 9.265 18.5454545454545  C 8.415 18.5454545454545  7.72727272727273 17.8577272727273  7.72727272727273 17.0077272727273  L 7.72727272727273 16.9907272727273  C 7.72727272727273 16.1422727272727  8.415 15.4545454545455  9.265 15.4545454545455  L 15.4545454545455 15.4545454545455  L 15.4545454545455 6.17409090909091  C 15.4545454545455 5.32409090909091  16.1422727272727 4.63636363636364  16.9922727272727 4.63636363636364  L 17.0092727272727 4.63636363636364  C 17.8577272727273 4.63636363636364  18.5454545454545 5.32409090909091  18 6.17409090909091  Z " fill-rule="nonzero" fill="#7fc6bc" stroke="none" fill-opacity="0" transform="matrix(1 0 0 1 1594 775 )" />
    <path d="M 34 17  C 34 7.61136363636364  26.3886363636364 0  17 0  C 7.61136363636364 0  0 7.61136363636364  0 17  C 0 26.3886363636364  7.61136363636364 34  17 34  C 26.3886363636364 34  34 26.3886363636364  34 17  Z " stroke-width="6" stroke="#34bd7d" fill="none" transform="matrix(1 0 0 1 1594 775 )" mask="url(#clip7)" />
    <path d="M 18 6.17409090909091  L 18 18.5454545454545  L 9.265 18.5454545454545  C 8.415 18.5454545454545  7.72727272727273 17.8577272727273  7.72727272727273 17.0077272727273  L 7.72727272727273 16.9907272727273  C 7.72727272727273 16.1422727272727  8.415 15.4545454545455  9.265 15.4545454545455  L 15.4545454545455 15.4545454545455  L 15.4545454545455 6.17409090909091  C 15.4545454545455 5.32409090909091  16.1422727272727 4.63636363636364  16.9922727272727 4.63636363636364  L 17.0092727272727 4.63636363636364  C 17.8577272727273 4.63636363636364  18.5454545454545 5.32409090909091  18 6.17409090909091  Z " stroke-width="6" stroke="#34bd7d" fill="none" transform="matrix(1 0 0 1 1594 775 )" mask="url(#clip7)" />
  </g>
</svg>