<?xml version="1.0" encoding="utf-8"?>
<svg version="1.1" xmlns:xlink="http://www.w3.org/1999/xlink" width="40px" height="34px" xmlns="http://www.w3.org/2000/svg">
  <g transform="matrix(1 0 0 1 -1790 -234 )">
    <path d="M 39.5052083333333 27.7046875  C 39.8350694444444 28.0411458333333  40 28.4395833333333  40 28.9  L 40 32.3  C 40 32.7604166666667  39.8350694444444 33.1588541666667  39.5052083333333 33.4953125  C 39.1753472222222 33.8317708333333  38.7847222222222 34  38.3333333333333 34  L 1.66666666666667 34  C 1.21527777777778 34  0.824652777777778 33.8317708333333  0.494791666666667 33.4953125  C 0.164930555555556 33.1588541666667  0 32.7604166666667  0 32.3  L 0 28.9  C 0 28.4395833333333  0.164930555555556 28.0411458333333  0.494791666666667 27.7046875  C 0.824652777777778 27.3682291666667  1.21527777777778 27.2  1.66666666666667 27  L 38.3333333333333 27  C 38.7847222222222 27.2  39.1753472222222 27.3682291666667  39.5052083333333 27.7046875  Z M 39.5052083333333 14.1046875  C 39.8350694444444 14.4411458333333  40 14.8395833333333  40 15.3  L 40 18.7  C 40 19.1604166666667  39.8350694444444 19.5588541666667  39.5052083333333 19.8953125  C 39.1753472222222 20.2317708333333  38.7847222222222 20.4  38.3333333333333 20  L 1.66666666666667 20  C 1.21527777777778 20.4  0.824652777777778 20.2317708333333  0.494791666666667 19.8953125  C 0.164930555555556 19.5588541666667  0 19.1604166666667  0 18.7  L 0 15.3  C 0 14.8395833333333  0.164930555555556 14.4411458333333  0.494791666666667 14.1046875  C 0.824652777777778 13.7682291666667  1.21527777777778 13.6  1.66666666666667 14  L 38.3333333333333 14  C 38.7847222222222 13.6  39.1753472222222 13.7682291666667  39.5052083333333 14.1046875  Z M 39.5052083333333 0.504687500000002  C 39.8350694444444 0.841145833333331  40 1.23958333333333  40 1.7  L 40 5.1  C 40 5.56041666666666  39.8350694444444 5.95885416666666  39.5052083333333 6.2953125  C 39.1753472222222 6.63177083333333  38.7847222222222 6.8  38.3333333333333 7  L 1.66666666666667 7  C 1.21527777777778 6.8  0.824652777777778 6.63177083333333  0.494791666666667 6.2953125  C 0.164930555555556 5.95885416666666  0 5.56041666666666  0 5.1  L 0 1.7  C 0 1.23958333333333  0.164930555555556 0.841145833333331  0.494791666666667 0.504687500000002  C 0.824652777777778 0.168229166666665  1.21527777777778 0  1.66666666666667 0  L 38.3333333333333 0  C 38.7847222222222 0  39.1753472222222 0.168229166666665  39.5052083333333 0.504687500000002  Z " fill-rule="nonzero" fill="#000000" stroke="none" transform="matrix(1 0 0 1 1790 234 )" />
  </g>
</svg>