<?xml version="1.0" encoding="utf-8"?>
<svg version="1.1" xmlns:xlink="http://www.w3.org/1999/xlink" width="55px" height="55px" xmlns="http://www.w3.org/2000/svg">
  <g transform="matrix(1 0 0 1 -886 -545 )">
    <path d="M 913.5 545  C 928.9 545  941 557.1  941 572.5  C 941 587.9  928.9 600  913.5 600  C 898.1 600  886 587.9  886 572.5  C 886 557.1  898.1 545  913.5 545  Z " fill-rule="nonzero" fill="#ffffff" stroke="none" />
    <path d="M 913.5 545.5  C 928.62 545.5  940.5 557.38  940.5 572.5  C 940.5 587.62  928.62 599.5  913.5 599.5  C 898.38 599.5  886.5 587.62  886.5 572.5  C 886.5 557.38  898.38 545.5  913.5 545.5  Z " stroke-width="1" stroke="#797979" fill="none" />
  </g>
</svg>