<?xml version="1.0" encoding="utf-8"?>
<svg version="1.1" xmlns:xlink="http://www.w3.org/1999/xlink" width="35px" height="30px" xmlns="http://www.w3.org/2000/svg">
  <g transform="matrix(1 0 0 1 -1745 -346 )">
    <path d="M 34.3677419354839 4.14141414141414  C 34.789247311828 4.61279461279461  35 5.18518518518519  35 5.85858585858586  C 35 6.53198653198653  34.789247311828 7.1043771043771  34.3677419354839 7.57575757575757  L 18.0193548387097 25.8585858585859  L 14.9483870967742 29.2929292929293  C 14.5268817204301 29.7643097643098  14.0150537634409 30  13.4129032258065 30  C 12.810752688172 30  12.2989247311828 29.7643097643098  11.8774193548387 29.2929292929293  L 8.80645161290322 25.8585858585859  L 0.632258064516129 16.7171717171717  C 0.210752688172043 16.2457912457912  0 15.6734006734007  0 15  C 0 14.3265993265993  0.210752688172043 13.7542087542088  0.632258064516129 13.2828282828283  L 3.70322580645161 9.84848484848485  C 4.1247311827957 9.37710437710438  4.63655913978495 9.14141414141414  5.23870967741936 9.14141414141414  C 5.84086021505377 9.14141414141414  6.35268817204301 9.37710437710438  6.7741935483871 9.84848484848485  L 13.4129032258065 17.2979797979798  L 28.2258064516129 0.707070707070707  C 28.647311827957 0.235690235690235  29.1591397849462 0  29.7612903225806 0  C 30.3634408602151 0  30.8752688172043 0.235690235690235  31.2967741935484 0.707070707070707  L 34.3677419354839 4.14141414141414  Z " fill-rule="nonzero" fill="#000000" stroke="none" transform="matrix(1 0 0 1 1745 346 )" />
  </g>
</svg>