<?xml version="1.0" encoding="utf-8"?>
<svg version="1.1" xmlns:xlink="http://www.w3.org/1999/xlink" width="32px" height="40px" xmlns="http://www.w3.org/2000/svg">
  <g transform="matrix(1 0 0 1 -3073 -311 )">
    <path d="M 31.2457912457912 29.8989898989899  C 31.7485970819304 30.5274971941639  32 31.290684624018  32 32.1885521885522  C 32 33.0864197530864  31.7485970819304 33.8496071829405  31.2457912457912 34.4781144781145  L 27.5824915824916 39.0572390572391  C 27.0796857463524 39.685746352413  26.4691358024691 40  25.7508417508418 40  C 25.0325476992144 40  24.4219977553311 39.685746352413  23.9191919191919 39.0572390572391  L 16 29.1582491582492  L 8.08080808080808 39.0572390572391  C 7.57800224466891 39.685746352413  6.96745230078563 40  6.24915824915825 40  C 5.53086419753086 40  4.92031425364759 39.685746352413  4.41750841750842 39.0572390572391  L 0.754208754208754 34.4781144781145  C 0.251402918069585 33.8496071829405  0 33.0864197530864  0 32.1885521885522  C 0 31.290684624018  0.251402918069585 30.5274971941639  0.754208754208754 29.8989898989899  L 8.67340067340067 20  L 0.754208754208754 10.1010101010101  C 0.251402918069585 9.47250280583614  0 8.70931537598204  0 7.81144781144781  C 0 6.91358024691358  0.251402918069585 6.15039281705948  0.754208754208754 5.52188552188552  L 4.41750841750842 0.942760942760943  C 4.92031425364759 0.314253647586979  5.53086419753086 0  6.24915824915825 0  C 6.96745230078563 0  7.57800224466891 0.314253647586979  8.08080808080808 0.942760942760943  L 16 10.8417508417508  L 23.9191919191919 0.942760942760943  C 24.4219977553311 0.314253647586979  25.0325476992144 0  25.7508417508418 0  C 26.4691358024691 0  27.0796857463524 0.314253647586979  27.5824915824916 0.942760942760943  L 31.2457912457912 5.52188552188552  C 31.7485970819304 6.15039281705948  32 6.91358024691358  32 7.81144781144781  C 32 8.70931537598204  31.7485970819304 9.47250280583614  31.2457912457912 10.1010101010101  L 23.3265993265993 20  L 31.2457912457912 29.8989898989899  Z " fill-rule="nonzero" fill="#000000" stroke="none" transform="matrix(1 0 0 1 3073 311 )" />
  </g>
</svg>