<?xml version="1.0" encoding="utf-8"?>
<svg version="1.1" xmlns:xlink="http://www.w3.org/1999/xlink" width="24px" height="20px" xmlns="http://www.w3.org/2000/svg">
  <g transform="matrix(1 0 0 1 -3081 -405 )">
    <path d="M 23.5664516129032 2.76094276094276  C 23.8554838709677 3.07519640852974  24 3.45679012345679  24 3.90572390572391  C 24 4.35465768799102  23.8554838709677 4.73625140291807  23.5664516129032 5.05050505050505  L 12.3561290322581 17.2390572390572  L 10.2503225806452 19.5286195286195  C 9.96129032258065 19.8428731762065  9.61032258064516 20  9.19741935483871 20  C 8.78451612903226 20  8.43354838709677 19.8428731762065  8.14451612903226 19.5286195286195  L 6.03870967741935 17.2390572390572  L 0.433548387096774 11.1447811447811  C 0.144516129032258 10.8305274971942  0 10.4489337822671  0 10  C 0 9.55106621773288  0.144516129032258 9.16947250280584  0.433548387096774 8.85521885521886  L 2.53935483870968 6.56565656565657  C 2.82838709677419 6.25140291806958  3.17935483870968 6.09427609427609  3.59225806451613 6.09427609427609  C 4.00516129032258 6.09427609427609  4.35612903225806 6.25140291806958  4.64516129032258 6.56565656565657  L 9.19741935483871 11.5319865319865  L 19.3548387096774 0.471380471380471  C 19.6438709677419 0.15712682379349  19.9948387096774 0  20.4077419354839 0  C 20.8206451612903 0  21.1716129032258 0.15712682379349  21.4606451612903 0.471380471380471  L 23.5664516129032 2.76094276094276  Z " fill-rule="nonzero" fill="#000000" stroke="none" transform="matrix(1 0 0 1 3081 405 )" />
  </g>
</svg>