<?xml version="1.0" encoding="utf-8"?>
<svg version="1.1" xmlns:xlink="http://www.w3.org/1999/xlink" width="113px" height="113px" xmlns="http://www.w3.org/2000/svg">
  <g transform="matrix(1 0 0 1 -1524 -334 )">
    <path d="M 1580.5 334  C 1612.14 334  1637 358.86  1637 390.5  C 1637 422.14  1612.14 447  1580.5 447  C 1548.86 447  1524 422.14  1524 390.5  C 1524 358.86  1548.86 334  1580.5 334  Z " fill-rule="nonzero" fill="#ffffff" stroke="none" />
    <path d="M 1580.5 334.5  C 1611.86 334.5  1636.5 359.14  1636.5 390.5  C 1636.5 421.86  1611.86 446.5  1580.5 446.5  C 1549.14 446.5  1524.5 421.86  1524.5 390.5  C 1524.5 359.14  1549.14 334.5  1580.5 334.5  Z " stroke-width="1" stroke="#797979" fill="none" />
  </g>
</svg>