<?xml version="1.0" encoding="utf-8"?>
<svg version="1.1" xmlns:xlink="http://www.w3.org/1999/xlink" width="79px" height="79px" xmlns="http://www.w3.org/2000/svg">
  <g transform="matrix(1 0 0 1 -2136 -221 )">
    <path d="M 2175.5 221  C 2197.62 221  2215 238.38  2215 260.5  C 2215 282.62  2197.62 300  2175.5 300  C 2153.38 300  2136 282.62  2136 260.5  C 2136 238.38  2153.38 221  2175.5 221  Z " fill-rule="nonzero" fill="#ffffff" stroke="none" />
    <path d="M 2175.5 221.5  C 2197.34 221.5  2214.5 238.66  2214.5 260.5  C 2214.5 282.34  2197.34 299.5  2175.5 299.5  C 2153.66 299.5  2136.5 282.34  2136.5 260.5  C 2136.5 238.66  2153.66 221.5  2175.5 221.5  Z " stroke-width="1" stroke="#797979" fill="none" />
  </g>
</svg>